PathFileType	4	(X/Y/Z)	/Users/itak/Documents/Research/Walk-IL/dataset/trc/00529_00183.trc
DataRate	CameraRate	NumFrames	NumMarkers	Units	OrigDataRate	OrigDataStartFrame	OrigNumFrames
100.000000	100.000000	4	53	mm	100.000000	300	481
Frame#	Time	RPSI			LPSI			L3			STRN			T10			C7			CLAV			RBAK			LBAK			LSHO			LUPA			LAEL			LAOL			LWTS			LWPS			LFRA			LIFD			LHPS			LHTS			RSHO			RUPA			RAEL			RAOL			RWTS			RWPS			RFRA			RIFD			RHTS			RHPS			RBHD			LFHD			RFHD			LBHD			LHIP			RHIP			RASI			LASI			LKNE			LTHI			LANK			LTIP			LTOE			LMT1			LMT5			LHEE			RKNE			RTHI			RANK			RTIP			RTOE			RMT1			RMT5			RHEE			
		X1	Y1	Z1	X2	Y2	Z2	X3	Y3	Z3	X4	Y4	Z4	X5	Y5	Z5	X6	Y6	Z6	X7	Y7	Z7	X8	Y8	Z8	X9	Y9	Z9	X10	Y10	Z10	X11	Y11	Z11	X12	Y12	Z12	X13	Y13	Z13	X14	Y14	Z14	X15	Y15	Z15	X16	Y16	Z16	X17	Y17	Z17	X18	Y18	Z18	X19	Y19	Z19	X20	Y20	Z20	X21	Y21	Z21	X22	Y22	Z22	X23	Y23	Z23	X24	Y24	Z24	X25	Y25	Z25	X26	Y26	Z26	X27	Y27	Z27	X28	Y28	Z28	X29	Y29	Z29	X30	Y30	Z30	X31	Y31	Z31	X32	Y32	Z32	X33	Y33	Z33	X34	Y34	Z34	X35	Y35	Z35	X36	Y36	Z36	X37	Y37	Z37	X38	Y38	Z38	X39	Y39	Z39	X40	Y40	Z40	X41	Y41	Z41	X42	Y42	Z42	X43	Y43	Z43	X44	Y44	Z44	X45	Y45	Z45	X46	Y46	Z46	X47	Y47	Z47	X48	Y48	Z48	X49	Y49	Z49	X50	Y50	Z50	X51	Y51	Z51	X52	Y52	Z52	X53	Y53	Z53	

301	3	204.3309326171875	942.12353515625	302.4644470214844	258.464599609375	931.96337890625	191.1196441650391	230.0316467285156	1011.234252929688	236.1821136474609	420.41796875	1179.046875	328.7742309570312	212.8719940185547	1114.751708984375	230.9900665283203	239.6673583984375	1346.942138671875	252.20458984375	383.2306518554688	1273.158081054688	314.7121887207031	163.6906890869141	1222.015625	305.3656005859375	255.3161468505859	1294.429077148438	161.060302734375	370.6803894042969	1345.138061523438	135.8958435058594	394.4343566894531	1219.825805664062	76.183349609375	430.1588439941406	1011.836059570312	58.9454460144043	337.2454833984375	996.1929321289062	88.79682159423828	502.6674499511719	825.2764282226562	123.2632064819336	449.0801086425781	789.4852905273438	53.97615814208984	449.5622253417969	928.8518676757812	62.33901596069336	501.4168701171875	667.5951538085938	134.3588562011719	469.8454895019531	735.3263549804688	69.29817962646484	518.8831787109375	746.7228393554688	109.7932586669922	226.3876495361328	1336.845947265625	410.0228576660156	183.9348602294922	1268.037231445312	448.1796875	145.3329315185547	1002.109985351562	464.2463684082031	128.8809051513672	991.98779296875	400.6168823242188	225.6215057373047	790.14599609375	488.2687377929688	136.6290283203125	776.238037109375	468.5367431640625	139.9981536865234	947.6402587890625	468.8322143554688	213.0661468505859	630.5874633789062	475.0762329101562	212.8776397705078	694.8552856445312	505.6974792480469	148.9163055419922	699.9326171875	475.662841796875	240.6265716552734	1500.4736328125	351.730224609375	419.9947204589844	1565.103759765625	291.2308959960938	357.7997436523438	1553.2890625	401.4568786621094	307.0310668945312	1512.76806640625	205.5353393554688	412.3268127441406	855.9313354492188	124.7415390014648	253.4207916259766	856.4136352539062	467.071533203125	367.6665954589844	906.5765991210938	445.7579650878906	465.173095703125	900.6847534179688	224.2384338378906	453.8922729492188	435.5844421386719	193.2047424316406	459.08837890625	594.856201171875	173.5379791259766	124.1786880493164	214.5309906005859	36.82271575927734	357.793701171875	341.3352355957031	139.5442962646484	164.9529266357422	37.71237182617188	121.3791580200195	125.8558120727539	103.6642990112305	139.9528350830078	157.4046783447266	111.333610534668	39.71004867553711	84.18540191650391	253.1245269775391	87.62220001220703	370.042724609375	478.1518859863281	449.4102172851562	298.8870849609375	729.8526611328125	483.9988708496094	354.6844787597656	46.67346954345703	397.0676574707031	403.6183471679688	332.8945922851562	440.3360900878906	556.004150390625	37.60411834716797	449.6890563964844	512.812255859375	41.67204666137695	385.5133972167969	449.6627502441406	42.14400863647461	458.05615234375	332.5165710449219	35.61653137207031	330.7416687011719	
302	3.01	211.8373565673828	943.2484130859375	307.8211364746094	265.3912963867188	932.2724609375	196.2526092529297	237.0445709228516	1012.091003417969	241.5793304443359	428.6966247558594	1179.899536132812	332.7394714355469	220.4028472900391	1115.940063476562	237.1621246337891	247.6668090820312	1347.994262695312	257.6849060058594	391.5815124511719	1274.052490234375	319.002685546875	172.1727752685547	1223.098754882812	311.9869079589844	262.4685363769531	1295.313232421875	166.5253295898438	377.7295837402344	1345.93798828125	140.2046966552734	401.1173095703125	1220.406127929688	80.7760009765625	437.5566101074219	1012.367858886719	64.27056121826172	344.4830017089844	996.7451171875	93.69342803955078	509.0750732421875	825.59228515625	129.7569122314453	456.4130859375	790.0546875	59.48157119750977	457.0570373535156	929.3333740234375	68.07020568847656	506.530029296875	667.848876953125	140.7187194824219	476.6827087402344	735.8687744140625	75.13779449462891	525.0556640625	746.8677368164062	116.57470703125	235.694580078125	1338.028198242188	415.6141967773438	193.7367553710938	1269.254760742188	454.5106811523438	156.1811981201172	1003.129760742188	472.7609558105469	138.4968566894531	992.7520751953125	409.4253845214844	237.7224884033203	791.897216796875	496.5216064453125	148.6269226074219	777.40966796875	478.2058410644531	151.0689239501953	948.7910766601562	477.7281799316406	225.3399963378906	632.17578125	485.0146179199219	225.5299072265625	696.7059936523438	515.0548706054688	161.1040802001953	701.3223266601562	486.0228271484375	248.9576568603516	1501.148803710938	356.8208618164062	428.1078796386719	1566.3232421875	296.1066589355469	366.0743713378906	1554.3291015625	406.4141845703125	315.2622985839844	1513.729736328125	210.4789581298828	419.3271484375	856.48681640625	129.7318115234375	261.333984375	857.2966918945312	472.062744140625	375.7353820800781	907.4689331054688	450.454345703125	472.5768127441406	902.0471801757812	228.5994262695312	472.3495178222656	438.0736694335938	202.5921020507812	471.7011108398438	596.7738037109375	180.2384490966797	142.9044952392578	217.6407623291016	47.32234954833984	376.8195495605469	344.7060852050781	149.7249908447266	187.0702819824219	40.54561614990234	130.4553375244141	146.9194946289062	106.1677093505859	149.7346496582031	178.0081024169922	115.345703125	49.53480529785156	102.3730926513672	255.2871398925781	98.43099212646484	373.4464416503906	477.7724609375	452.2350158691406	305.3320007324219	730.1674194335938	488.1473999023438	354.7382507324219	46.60654830932617	397.0985107421875	405.4378051757812	332.3103637695312	442.1863708496094	555.9918823242188	37.29517364501953	449.873779296875	512.8263549804688	41.61380767822266	385.7278137207031	449.6550903320312	41.8182373046875	458.2987976074219	332.5433044433594	35.74357604980469	330.7489624023438	
303	3.02	219.2691345214844	944.3433837890625	312.9346618652344	272.448486328125	932.7410888671875	201.1980743408203	244.0779266357422	1013.000427246094	246.7807464599609	436.802734375	1180.871704101562	336.6435852050781	227.8236999511719	1117.15185546875	243.0801239013672	255.5282745361328	1349.077270507812	262.9969787597656	399.7592163085938	1275.04638671875	323.1985473632812	180.4963531494141	1224.226440429688	318.3675537109375	269.5430297851562	1296.244262695312	171.8377532958984	384.6573181152344	1346.797607421875	144.4152069091797	407.6311340332031	1221.089965820312	85.19200134277344	444.6294250488281	1012.987548828125	69.4158935546875	351.4195556640625	997.4132080078125	98.4771728515625	515.427001953125	826.1233520507812	136.06640625	463.7259216308594	790.8072509765625	64.84896850585938	464.2705993652344	929.9960327148438	73.63604736328125	511.9491577148438	668.3151245117188	146.7530212402344	483.6056213378906	736.6265258789062	80.74404907226562	531.2810668945312	747.2819213867188	123.0933456420898	244.8115844726562	1339.316284179688	420.9958801269531	203.3707733154297	1270.615844726562	460.6714172363281	167.1903533935547	1004.288879394531	481.2958374023438	148.1863098144531	993.6378784179688	418.3086853027344	250.0085144042969	793.7578125	504.64990234375	160.7811889648438	778.7728271484375	488.1213684082031	162.3658142089844	950.0877685546875	486.6402587890625	237.5894622802734	633.890380859375	494.9610900878906	238.3693084716797	698.6959838867188	524.3713989257812	173.3879547119141	702.9296264648438	496.6161193847656	257.3044128417969	1501.95849609375	361.8179016113281	436.3263854980469	1567.414916992188	300.9245300292969	374.4554443359375	1555.257690429688	411.3089904785156	323.4651184082031	1514.784423828125	215.3747100830078	426.5917663574219	857.29345703125	134.7474975585938	269.0496826171875	858.089599609375	476.8526306152344	383.580810546875	908.4140625	455.2002258300781	479.9469909667969	903.55126953125	233.0865020751953	490.4769897460938	441.0566101074219	212.0357208251953	484.3161010742188	599.02197265625	186.9720306396484	162.1728668212891	219.2218170166016	58.18150329589844	395.6799926757812	348.1377868652344	160.0438385009766	211.1856994628906	43.12192916870117	140.6540069580078	169.4115447998047	107.7456970214844	160.3197784423828	200.0088348388672	118.2264404296875	60.14684677124023	120.8234100341797	255.8203125	109.4181289672852	376.9297180175781	477.4215393066406	455.0689392089844	311.7680053710938	730.482421875	492.2258605957031	354.767822265625	46.53824615478516	397.1614074707031	407.2813720703125	331.7748718261719	443.9310607910156	555.95947265625	37.10617828369141	450.0460510253906	512.821044921875	41.61306762695312	385.9303588867188	449.61865234375	41.51829528808594	458.5436706542969	332.5432434082031	35.88925933837891	330.7753295898438	
304	3.03	226.6696319580078	945.3736572265625	317.82421875	279.6660766601562	933.337890625	205.9598693847656	251.1770477294922	1013.947021484375	251.7928924560547	444.7359924316406	1181.949584960938	340.5401916503906	235.1905975341797	1118.356079101562	248.7324523925781	263.2483520507812	1350.169921875	268.1460876464844	407.7608337402344	1276.121826171875	327.3392028808594	188.6430816650391	1225.374633789062	324.4861145019531	276.5609436035156	1297.205200195312	176.9980163574219	391.4926452636719	1347.695922851562	148.5650177001953	414.0214538574219	1221.865356445312	89.45848083496094	451.3709411621094	1013.683227539062	74.40412139892578	358.0511779785156	998.1932373046875	103.1837310791016	521.7434692382812	826.836669921875	142.1490325927734	470.9840393066406	791.7177734375	70.07393646240234	471.1850280761719	930.8186645507812	79.02215576171875	517.6815795898438	668.95849609375	152.4431304931641	490.5755920410156	737.5609130859375	86.10728454589844	537.57421875	747.9295043945312	129.2944183349609	253.7145843505859	1340.69384765625	426.1739501953125	212.8020935058594	1272.1064453125	466.6509704589844	178.3290100097656	1005.594116210938	489.8008422851562	157.9365844726562	994.6373901367188	427.2286071777344	262.4709777832031	795.7239990234375	512.634033203125	173.0807495117188	780.338134765625	498.2919006347656	173.8588256835938	951.5189208984375	495.5224304199219	249.8766174316406	635.7327270507812	504.8993225097656	251.4289703369141	700.825927734375	533.6214599609375	185.8123626708984	704.7433471679688	507.4290771484375	265.6596374511719	1502.907592773438	366.7184753417969	444.6476135253906	1568.359375	305.6736450195312	382.9358215332031	1556.068237304688	416.1308898925781	331.6279296875	1515.912109375	220.2228393554688	434.137939453125	858.3319702148438	139.8028717041016	276.5855712890625	858.7908325195312	481.475830078125	391.2211608886719	909.384033203125	460.0203552246094	487.292236328125	905.1665649414062	237.7261962890625	508.2515869140625	444.4679260253906	221.5018615722656	496.9814453125	601.5792846679688	193.7534027099609	181.9572296142578	219.2767333984375	69.32284545898438	414.3797912597656	351.507080078125	170.4502868652344	236.9886322021484	45.28078079223633	151.8709106445312	193.1422882080078	108.4009628295898	171.6200714111328	223.1909332275391	119.9354476928711	71.44455718994141	139.5912322998047	254.7608489990234	120.5199203491211	380.4987487792969	477.0789184570312	457.8826599121094	318.2602233886719	730.7935180664062	496.2673034667969	354.790283203125	46.47631072998047	397.246337890625	409.1741943359375	331.2716064453125	445.5560607910156	555.927734375	36.98426818847656	450.2037048339844	512.8077392578125	41.64572143554688	386.1126098632812	449.5719299316406	41.23837280273438	458.7821960449219	332.5252380371094	36.05757522583008	330.8157043457031	
